<svg width="22" height="22" viewBox="0 0 22 22" fill="none" xmlns="http://www.w3.org/2000/svg">
<path d="M20.1392 16.8025C20.1392 17.1325 20.0659 17.4716 19.91 17.8016C19.7542 18.1316 19.5525 18.4433 19.2867 18.7366C18.8375 19.2316 18.3425 19.5891 17.7834 19.8183C17.2334 20.0475 16.6375 20.1666 15.9959 20.1666C15.0609 20.1666 14.0617 19.9466 13.0075 19.4975C11.9534 19.0483 10.8992 18.4433 9.85421 17.6825C8.78914 16.9034 7.78409 16.0454 6.84754 15.1158C5.92058 14.1827 5.06563 13.1806 4.29004 12.1183C3.53837 11.0733 2.93337 10.0283 2.49337 8.99248C2.05337 7.94748 1.83337 6.94831 1.83337 5.99498C1.83337 5.37165 1.94337 4.77581 2.16337 4.22581C2.38337 3.66665 2.73171 3.15331 3.21754 2.69498C3.80421 2.11748 4.44587 1.83331 5.12421 1.83331C5.38087 1.83331 5.63754 1.88831 5.86671 1.99831C6.10504 2.10831 6.31587 2.27331 6.48087 2.51165L8.60754 5.50915C8.77254 5.73831 8.89171 5.94915 8.97421 6.15081C9.05671 6.34331 9.10254 6.53581 9.10254 6.70998C9.10254 6.92998 9.03837 7.14998 8.91004 7.36081C8.79087 7.57165 8.61671 7.79165 8.39671 8.01165L7.70004 8.73581C7.59921 8.83665 7.55337 8.95581 7.55337 9.10248C7.55337 9.17581 7.56254 9.23998 7.58087 9.31331C7.60837 9.38665 7.63587 9.44165 7.65421 9.49665C7.81921 9.79915 8.10337 10.1933 8.50671 10.67C8.91921 11.1466 9.35921 11.6325 9.83587 12.1183C10.3309 12.6041 10.8075 13.0533 11.2934 13.4658C11.77 13.8691 12.1642 14.1441 12.4759 14.3091C12.5217 14.3275 12.5767 14.355 12.6409 14.3825C12.7142 14.41 12.7875 14.4191 12.87 14.4191C13.0259 14.4191 13.145 14.3641 13.2459 14.2633L13.9425 13.5758C14.1717 13.3466 14.3917 13.1725 14.6025 13.0625C14.8134 12.9341 15.0242 12.87 15.2534 12.87C15.4275 12.87 15.6109 12.9066 15.8125 12.9891C16.0142 13.0716 16.225 13.1908 16.4542 13.3466L19.4884 15.5008C19.7267 15.6658 19.8917 15.8583 19.9925 16.0875C20.0842 16.3166 20.1392 16.5458 20.1392 16.8025Z" stroke="#A7A9B7" stroke-width="1.5" stroke-miterlimit="10"/>
</svg>
