<svg width="24" height="24" viewBox="0 0 24 24" fill="none" xmlns="http://www.w3.org/2000/svg">
<path d="M20.04 6.82201L14.28 2.79201C12.71 1.69201 10.3 1.75201 8.78999 2.92201L3.77999 6.83201C2.77999 7.61201 1.98999 9.21201 1.98999 10.472V17.372C1.98999 19.922 4.05999 22.002 6.60999 22.002H17.39C19.94 22.002 22.01 19.932 22.01 17.382V10.602C22.01 9.25201 21.14 7.59201 20.04 6.82201ZM12.75 18.002C12.75 18.412 12.41 18.752 12 18.752C11.59 18.752 11.25 18.412 11.25 18.002V15.002C11.25 14.592 11.59 14.252 12 14.252C12.41 14.252 12.75 14.592 12.75 15.002V18.002Z" fill="#9C9C9C"/>
</svg>
