<svg width="24" height="24" viewBox="0 0 24 24" fill="none" xmlns="http://www.w3.org/2000/svg">
<g clip-path="url(#clip0_12_177)">
<path d="M12.0014 12C9.24 12 7.00143 9.76142 7.00143 7C7.00143 4.23858 9.24 2 12.0014 2C14.7628 2 17.0014 4.23858 17.0014 7C17.0014 9.76142 14.7628 12 12.0014 12ZM18.0014 17V22H16.0014V17C16.0014 12.5487 18.6454 8.71498 22.4485 6.98352L23.2763 8.8047C20.1646 10.2213 18.0014 13.3581 18.0014 17ZM8.00143 17V22H6.00143V17C6.00143 13.3581 3.8382 10.2213 0.726562 8.8047L1.55437 6.98352C5.35749 8.71498 8.00143 12.5487 8.00143 17Z" fill="#FF8D2A"/>
<path d="M17.0014 16V21H15.0014V16C15.0014 11.5487 17.6454 7.71498 21.4485 5.98352L22.2763 7.8047C19.1646 9.2213 17.0014 12.3581 17.0014 16ZM7.00143 16V21H5.00143V16C5.00143 12.3581 2.8382 9.2213 -0.273438 7.8047L0.554371 5.98352C4.35749 7.71498 7.00143 11.5487 7.00143 16ZM11.0014 11C8.24 11 6.00143 8.76142 6.00143 6C6.00143 3.23858 8.24 1 11.0014 1C13.7628 1 16.0014 3.23858 16.0014 6C16.0014 8.76142 13.7628 11 11.0014 11ZM11.0014 9C12.6583 9 14.0014 7.65685 14.0014 6C14.0014 4.34315 12.6583 3 11.0014 3C9.3446 3 8.00142 4.34315 8.00142 6C8.00142 7.65685 9.3446 9 11.0014 9Z" fill="#242D68"/>
</g>
<defs>
<clipPath id="clip0_12_177">
<rect width="24" height="24" fill="white"/>
</clipPath>
</defs>
</svg>
