<svg width="24" height="24" viewBox="0 0 24 24" fill="none" xmlns="http://www.w3.org/2000/svg">
<g clip-path="url(#clip0_0_3330)">
<path d="M6.22235 5.80777L12.9399 12.5253L10.1114 15.3537L6.22235 11.4646C4.66026 9.90253 4.66026 7.36987 6.22235 5.80777ZM16.2683 14.1466L15.4147 15.0002L22.4858 22.0712L21.0716 23.4854L14.0005 16.4144L6.92946 23.4854L5.51525 22.0712L14.854 12.7324C14.2664 11.2755 14.8738 9.17715 16.4754 7.57554C18.428 5.62292 21.119 5.14805 22.4858 6.51488C23.8526 7.88172 23.3778 10.5727 21.4251 12.5253C19.8235 14.1269 17.7252 14.7343 16.2683 14.1466Z" fill="#FF8D2A"/>
<path d="M14.2683 12.1466L13.4147 13.0002L20.4858 20.0712L19.0716 21.4854L12.0005 14.4144L4.92946 21.4854L3.51525 20.0712L12.854 10.7324C12.2664 9.27549 12.8738 7.17715 14.4754 5.57554C16.428 3.62292 19.119 3.14805 20.4858 4.51488C21.8526 5.88172 21.3778 8.57267 19.4251 10.5253C17.8235 12.1269 15.7252 12.7343 14.2683 12.1466ZM4.22235 3.80777L10.9399 10.5253L8.11144 13.3537L4.22235 9.46463C2.66026 7.90253 2.66026 5.36987 4.22235 3.80777ZM18.0109 9.11107C19.2682 7.85386 19.5274 6.38488 19.0716 5.92909C18.6158 5.47331 17.1468 5.73254 15.8896 6.98975C14.6324 8.24697 14.3732 9.71595 14.829 10.1717C15.2847 10.6275 16.7537 10.3683 18.0109 9.11107Z" fill="#242D68"/>
</g>
<defs>
<clipPath id="clip0_0_3330">
<rect width="24" height="24" fill="white"/>
</clipPath>
</defs>
</svg>
