<svg width="24" height="24" viewBox="0 0 24 24" fill="none" xmlns="http://www.w3.org/2000/svg">
<path d="M12.8299 9.78986L11 10.4559V14H8.99997V9.05H9.01499L14.2834 7.13247C14.5274 7.03855 14.7922 6.99162 15.0648 7.0008C16.1762 7.02813 17.1522 7.75668 17.4917 8.82036C17.678 9.40431 17.848 9.79836 18.0015 10.0025C18.9138 11.2155 20.3653 12 22 12V14C19.8253 14 17.8823 13.0083 16.5984 11.4526L16.017 14.7497L18 16.67V24H16V18.0142L13.9507 16.0271L13.003 20.3253L6.10938 19.1098L6.45667 17.1401L11.3807 18.0084L12.8299 9.78986ZM16.5 6.5C15.3954 6.5 14.5 5.60457 14.5 4.5C14.5 3.39543 15.3954 2.5 16.5 2.5C17.6046 2.5 18.5 3.39543 18.5 4.5C18.5 5.60457 17.6046 6.5 16.5 6.5Z" fill="#FF8D2A"/>
<path d="M11.8299 8.78986L9.99998 9.45588V13H7.99997V8.05H8.01499L13.2834 6.13247C13.5274 6.03855 13.7922 5.99162 14.0648 6.0008C15.1762 6.02813 16.1522 6.75668 16.4917 7.82036C16.678 8.40431 16.848 8.79836 17.0015 9.0025C17.9138 10.2155 19.3653 11 21 11V13C18.8253 13 16.8823 12.0083 15.5984 10.4526L15.017 13.7497L17 15.67V23H15V17.0142L12.9507 15.0271L12.003 19.3253L5.10938 18.1098L5.45667 16.1401L10.3807 17.0084L11.8299 8.78986ZM15.5 5.5C14.3954 5.5 13.5 4.60457 13.5 3.5C13.5 2.39543 14.3954 1.5 15.5 1.5C16.6046 1.5 17.5 2.39543 17.5 3.5C17.5 4.60457 16.6046 5.5 15.5 5.5Z" fill="#242D68"/>
</svg>
