<svg width="22" height="22" viewBox="0 0 22 22" fill="none" xmlns="http://www.w3.org/2000/svg">
<path d="M18.8742 20.1666C18.8742 16.6191 15.345 13.75 11 13.75C6.65502 13.75 3.12585 16.6191 3.12585 20.1666M11 11C12.2156 11 13.3814 10.5171 14.2409 9.65755C15.1005 8.79801 15.5834 7.63222 15.5834 6.41665C15.5834 5.20107 15.1005 4.03528 14.2409 3.17574C13.3814 2.3162 12.2156 1.83331 11 1.83331C9.78445 1.83331 8.61866 2.3162 7.75912 3.17574C6.89957 4.03528 6.41669 5.20107 6.41669 6.41665C6.41669 7.63222 6.89957 8.79801 7.75912 9.65755C8.61866 10.5171 9.78445 11 11 11Z" stroke="#A7A9B7" stroke-width="1.5" stroke-linecap="round" stroke-linejoin="round"/>
</svg>
